<svg width="70" height="70" viewBox="0 0 70 70" fill="none" xmlns="http://www.w3.org/2000/svg">
<path d="M66.2958 66.2958L3.70417 3.70413L0 7.4083L12.8042 20.2125L19.25 33.8041L15.3125 40.95C14.8458 41.7666 14.5833 42.7291 14.5833 43.75C14.5833 45.2971 15.1979 46.7808 16.2919 47.8747C17.3858 48.9687 18.8696 49.5833 20.4167 49.5833H42.175L46.2 53.6083C44.7417 54.6583 43.75 56.3791 43.75 58.3333C43.75 59.8804 44.3646 61.3641 45.4585 62.4581C46.5525 63.552 48.0362 64.1666 49.5833 64.1666C51.5375 64.1666 53.2583 63.2041 54.3083 61.7166L62.5917 70L66.2958 66.2958ZM21.6417 43.75C21.4483 43.75 21.2628 43.6731 21.1261 43.5364C20.9893 43.3997 20.9125 43.2142 20.9125 43.0208L21 42.6708L23.625 37.9166H30.5083L36.3417 43.75H21.6417ZM45.3542 37.9166C47.5417 37.9166 49.4667 36.7208 50.4583 34.9125L60.9 16.0416C61.1333 15.575 61.25 15.0791 61.25 14.5833C61.25 13.8098 60.9427 13.0679 60.3957 12.5209C59.8487 11.9739 59.1069 11.6666 58.3333 11.6666H19.075L45.3542 37.9166ZM20.4167 52.5C18.8696 52.5 17.3858 53.1145 16.2919 54.2085C15.1979 55.3025 14.5833 56.7862 14.5833 58.3333C14.5833 59.8804 15.1979 61.3641 16.2919 62.4581C17.3858 63.552 18.8696 64.1666 20.4167 64.1666C21.9638 64.1666 23.4475 63.552 24.5415 62.4581C25.6354 61.3641 26.25 59.8804 26.25 58.3333C26.25 56.7862 25.6354 55.3025 24.5415 54.2085C23.4475 53.1145 21.9638 52.5 20.4167 52.5Z" fill="#FF4A22"/>
</svg>
