<svg width="41" height="41" viewBox="0 0 41 41" fill="none" xmlns="http://www.w3.org/2000/svg">
<g opacity="0.26">
<path d="M18.0334 9.95691C17.1802 9.95645 16.3478 10.2281 15.6511 10.7345C14.9543 11.2409 14.4274 11.9571 14.143 12.7844H9.78516V15.6119H14.143C14.427 16.4396 14.9537 17.1565 15.6505 17.6635C16.3473 18.1705 17.1798 18.4428 18.0334 18.4428C18.887 18.4428 19.7195 18.1705 20.4163 17.6635C21.1131 17.1565 21.6398 16.4396 21.9238 15.6119H31.7805V12.7844H21.9238C21.6394 11.9571 21.1125 11.2409 20.4157 10.7345C19.719 10.2281 18.8866 9.95645 18.0334 9.95691ZM16.6587 14.1981C16.6587 13.8232 16.8035 13.4636 17.0613 13.1985C17.3191 12.9333 17.6688 12.7844 18.0334 12.7844C18.398 12.7844 18.7477 12.9333 19.0055 13.1985C19.2633 13.4636 19.4081 13.8232 19.4081 14.1981C19.4081 14.5731 19.2633 14.9327 19.0055 15.1978C18.7477 15.4629 18.398 15.6119 18.0334 15.6119C17.6688 15.6119 17.3191 15.4629 17.0613 15.1978C16.8035 14.9327 16.6587 14.5731 16.6587 14.1981ZM23.5322 21.2668C22.679 21.2663 21.8467 21.538 21.1499 22.0444C20.4531 22.5508 19.9262 23.267 19.6418 24.0943H9.78516V26.9218H19.6418C19.9258 27.7495 20.4525 28.4664 21.1493 28.9734C21.8461 29.4804 22.6787 29.7527 23.5322 29.7527C24.3858 29.7527 25.2184 29.4804 25.9151 28.9734C26.6119 28.4664 27.1386 27.7495 27.4226 26.9218H31.7805V24.0943H27.4226C27.1382 23.267 26.6113 22.5508 25.9146 22.0444C25.2178 21.538 24.3854 21.2663 23.5322 21.2668ZM22.1575 25.508C22.1575 25.1331 22.3024 24.7735 22.5602 24.5084C22.818 24.2432 23.1676 24.0943 23.5322 24.0943C23.8968 24.0943 24.2465 24.2432 24.5043 24.5084C24.7621 24.7735 24.9069 25.1331 24.9069 25.508C24.9069 25.883 24.7621 26.2425 24.5043 26.5077C24.2465 26.7728 23.8968 26.9218 23.5322 26.9218C23.1676 26.9218 22.818 26.7728 22.5602 26.5077C22.3024 26.2425 22.1575 25.883 22.1575 25.508Z" fill="black"/>
</g>
</svg>
