<svg width="24" height="24" viewBox="0 0 24 24" fill="none" xmlns="http://www.w3.org/2000/svg">
<path d="M10.8832 4.40482C7.93069 6.29532 6.45444 8.57207 6.45444 11.2351C6.45444 12.0636 6.59869 12.4778 6.88719 12.4778L7.18419 12.3976C7.41769 12.3076 7.60669 12.2626 7.75119 12.2626C8.59719 12.2626 9.30344 12.5701 9.86994 13.1851C10.4364 13.8001 10.7199 14.5591 10.7204 15.4621C10.7199 16.3301 10.4137 17.0668 9.80169 17.6723C9.18969 18.2773 8.45169 18.5798 7.58769 18.5798C6.38169 18.5798 5.38669 18.0841 4.60269 17.0926C3.82069 16.1026 3.42969 14.8583 3.42969 13.3598C3.42919 11.6648 3.76169 10.1141 4.42719 8.70757C5.09419 7.30157 6.11119 6.03032 7.47819 4.89382C8.84619 3.75832 9.71919 3.19032 10.0972 3.18982C10.3492 3.18982 10.5562 3.31132 10.7182 3.55432C10.8802 3.79682 10.9612 4.00807 10.9612 4.18807L10.8809 4.40407L10.8832 4.40482ZM20.6032 4.40482C17.6507 6.29482 16.1747 8.57182 16.1752 11.2358C16.1752 12.0643 16.3194 12.4786 16.6079 12.4786L16.9049 12.3983C17.1384 12.3083 17.3274 12.2633 17.4719 12.2633C18.2999 12.2633 19.0017 12.5708 19.5772 13.1858C20.1537 13.7998 20.4417 14.5588 20.4412 15.4628C20.4407 16.3308 20.1344 17.0676 19.5224 17.6731C18.9104 18.2781 18.1724 18.5806 17.3084 18.5806C16.1024 18.5806 15.1074 18.0848 14.3234 17.0933C13.5414 16.1033 13.1504 14.8591 13.1504 13.3606C13.1494 11.6476 13.4869 10.0836 14.1629 8.66857C14.8379 7.25307 15.8547 5.98632 17.2132 4.86832C18.5742 3.74982 19.4429 3.19057 19.8194 3.19057C20.0719 3.19057 20.2794 3.31207 20.4419 3.55507C20.6034 3.79807 20.6842 4.00957 20.6842 4.18957L20.6032 4.40482Z" fill="black"/>
</svg>
