<svg width="165" height="50" viewBox="0 0 165 50" fill="none" xmlns="http://www.w3.org/2000/svg">
<g clip-path="url(#clip0_2703_21067)">
<path d="M3.5889 4.55183C5.2983 3.53079 7.09228 3.49508 8.89939 3.97903C13.5625 5.22784 17.2603 7.82689 19.7404 12.0164C21.2841 14.6244 21.4788 17.4631 20.964 20.3892C20.9297 20.5836 20.9123 20.7817 20.8667 20.9733C20.5428 22.3306 20.6529 23.5746 21.9072 24.5953C21.1145 25.5303 20.3831 26.4515 19.5826 27.3084C19.2606 27.653 18.3775 27.478 18.0498 27.0528C17.3698 26.1706 16.4796 25.8498 15.397 25.926C10.1954 26.2923 6.51984 23.813 3.80656 19.6263C2.12427 17.0304 1.13826 14.1668 0.927086 11.0736C0.863236 10.1383 0.925374 9.17308 1.08567 8.24861C1.35702 6.68366 2.1842 5.43256 3.5889 4.55183ZM12.0115 7.65097C15.6039 9.86353 18.3017 12.8179 19.6773 16.885C19.6009 16.2445 19.5207 15.6105 19.3662 14.9952C18.7229 12.4336 17.2755 10.3763 15.3137 8.65518C13.2218 6.81992 10.8538 5.52387 8.07691 5.0939C7.05593 4.93581 6.01223 4.84321 4.85388 5.36822C7.52249 5.50636 9.7958 6.35472 12.0115 7.65097Z" fill="#FF4A22"/>
<path d="M39.2501 3.32662C39.4347 3.11718 39.5603 2.87432 39.7571 2.7796C39.9719 2.67627 40.3213 2.60733 40.4838 2.71566C40.6229 2.80846 40.6895 3.22799 40.5987 3.40676C40.3322 3.93146 39.9889 4.42079 39.6445 4.90172C37.4486 7.96851 35.2438 11.0289 33.0439 14.0929C32.8715 14.333 32.635 14.5665 32.5747 14.8359C32.5212 15.0748 32.5899 15.479 32.7542 15.5908C32.9266 15.7081 33.3046 15.6252 33.5404 15.5163C33.7344 15.4267 33.8574 15.1753 34.0023 14.9883C36.6375 11.584 39.2712 8.17864 41.9055 4.77363C41.9538 4.71116 41.9996 4.64594 42.0543 4.58941C42.2982 4.33737 42.6211 4.17372 42.8726 4.46461C43.0159 4.63036 43.0636 5.04154 42.9572 5.23231C42.4868 6.07594 41.9683 6.89565 41.4247 7.69508C39.4593 10.585 37.4769 13.4633 35.5008 16.346C35.445 16.4275 35.387 16.5074 35.332 16.5895C34.9706 17.1286 34.9742 17.4737 35.3644 17.7146C35.829 18.0015 36.1407 17.757 36.4105 17.3869C36.7477 16.924 37.0899 16.4647 37.4309 16.0046C39.7352 12.8944 42.0396 9.78436 44.3444 6.67448C44.4031 6.59518 44.4505 6.474 44.5283 6.44838C44.7811 6.36506 45.0895 6.20892 45.2911 6.2909C45.4433 6.35276 45.5567 6.75062 45.5229 6.97409C45.4682 7.33631 45.3023 7.68934 45.1424 8.02694C43.1121 12.3172 40.8433 16.4715 37.9738 20.2672C37.2381 21.2404 36.4151 22.1578 35.556 23.0253C34.3835 24.2093 32.8927 24.8126 31.2497 24.6162C29.2401 24.3761 27.9442 25.2104 27.0919 26.9137C26.7764 27.5442 26.3821 27.6693 25.6879 27.5805C24.3599 27.4106 23.012 27.3966 21.6721 27.3207C21.5039 27.3112 21.3347 27.3194 21 27.3194C22.0895 25.9857 23.0657 24.7553 24.0812 23.5586C24.876 22.6218 25.118 21.5885 24.7987 20.4119C24.7057 20.0689 24.6313 19.7204 24.5243 19.382C23.9904 17.6919 24.0969 16.0382 24.9935 14.5169C25.7323 13.2631 26.5354 12.0299 27.4492 10.8999C30.2624 7.42085 33.4306 4.27447 36.7494 1.27944C37.0893 0.972715 37.463 0.495339 37.9666 0.917225C38.5121 1.37427 37.9998 1.79605 37.7455 2.13862C35.5564 5.08841 33.3427 8.01984 31.1398 10.9595C30.749 11.481 30.3765 12.0162 29.9928 12.5431C29.7443 12.8844 29.6483 13.2438 30.0176 13.5402C30.3989 13.846 30.7568 13.7148 31.0447 13.3573C32.1592 11.9724 33.2613 10.5772 34.388 9.20222C35.9903 7.24674 37.6102 5.30568 39.2501 3.32662Z" fill="#E8FFF1"/>
<path d="M27.8199 40.9038C26.0881 38.4785 24.3815 36.0876 22.6225 33.6233C22.4114 33.8913 22.2568 34.0635 22.1289 34.2538C19.1111 38.7477 16.0887 43.2387 13.0854 47.7423C12.2906 48.9341 11.1861 49.3811 9.8214 49.1791C7.15652 48.7846 5.86521 45.5662 7.57841 43.4788C9.62095 40.9901 11.8883 38.676 13.8081 36.0997C15.2018 34.2295 17.0859 33.6341 19.1292 33.1653C22.19 32.4632 25.278 32.4192 28.3749 32.8998C28.5897 32.9331 28.8366 33.0531 28.9794 33.2126C32.051 36.6415 35.1195 40.0731 38.1657 43.5242C39.2338 44.7343 39.3075 46.245 38.4471 47.5657C37.5821 48.8933 36.0021 49.5206 34.5378 49.1366C33.6607 48.9066 33.0695 48.3314 32.5669 47.6167C30.9986 45.3864 29.4197 43.1638 27.8199 40.9038Z" fill="#FF4A22"/>
<path d="M62.6002 24.9245C62.4388 25.0311 62.3168 25.1162 62.1536 25.2298C62.3219 25.312 62.424 25.3689 62.5313 25.4131C64.7759 26.3373 65.8676 28.06 65.9025 30.4395C65.9377 32.8449 64.9114 34.6681 62.7149 35.7522C61.5428 36.3308 60.2775 36.566 58.9841 36.5793C55.9614 36.6104 52.9383 36.6029 49.9154 36.6086C49.8198 36.6089 49.7242 36.5827 49.6074 36.5657C49.6074 29.3431 49.6074 22.137 49.6074 14.8861C49.794 14.8691 49.9624 14.8401 50.1309 14.8404C52.9365 14.8437 55.7431 14.8127 58.5472 14.8786C59.4611 14.8999 60.4074 15.0626 61.2728 15.3557C64.4746 16.4401 65.9204 20.3274 64.2027 23.2437C63.8266 23.8821 63.1681 24.3542 62.6002 24.9245ZM60.1904 33.2565C61.3032 32.9077 62.0014 32.1633 62.2632 31.0311C62.7516 28.9183 61.4703 27.1583 59.1568 27.007C57.1911 26.8786 55.2099 26.986 53.2355 26.9926C53.2045 26.9927 53.1738 27.0368 53.1471 27.0571C53.1471 29.1835 53.1471 31.306 53.1471 33.4768C54.6531 33.4768 56.1111 33.4983 57.5681 33.4685C58.4128 33.4511 59.2556 33.3511 60.1904 33.2565ZM60.8232 22.5737C62.0785 20.3875 60.901 18.2181 58.3962 18.1553C56.7599 18.1144 55.1217 18.1441 53.4845 18.1464C53.3736 18.1466 53.2629 18.1833 53.1523 18.2029C53.1523 20.0997 53.1523 21.9632 53.1523 23.8798C54.901 23.8798 56.6121 23.8971 58.3227 23.8733C59.3221 23.8594 60.1524 23.4468 60.8232 22.5737Z" fill="#E8FFF1"/>
<path d="M120.016 32.5253C120.725 31.8158 121.4 31.1316 122.139 30.3811C123.058 30.8393 124.058 31.3383 125.109 31.8623C124.521 32.9802 123.798 33.9057 122.845 34.6287C118.98 37.5605 114.773 37.8191 110.58 35.6677C106.414 33.5303 104.53 29.8315 104.725 25.166C104.895 21.0794 106.696 17.8305 110.321 15.8617C113.973 13.8786 117.761 13.9376 121.457 15.8553C123.013 16.6631 124.163 17.9349 124.997 19.4919C124.017 20.0082 123.077 20.5039 122.008 21.0671C121.976 21.0027 121.94 20.886 121.871 20.7921C120.017 18.2487 117.465 17.4033 114.464 17.9274C111.462 18.4516 109.534 20.2985 108.631 23.1883C107.403 27.1241 109.193 31.4483 112.793 33.0416C115.231 34.1206 117.676 34.0357 120.016 32.5253Z" fill="#FF4A22"/>
<path d="M94.4141 29.8123C92.8751 29.8123 91.3955 29.8123 89.9177 29.8123C89.8661 31.2116 91.1633 32.9594 92.6868 33.5848C94.8985 34.4927 96.9237 33.8962 98.9492 31.7307C99.8365 32.2599 100.727 32.7911 101.733 33.3911C101.246 33.9279 100.836 34.4809 100.328 34.9213C97.8131 37.1036 94.8981 37.4601 91.8292 36.5048C88.8997 35.5931 87.0289 33.5378 86.4486 30.5212C85.8307 27.309 86.547 24.3775 89.1375 22.2143C91.7461 20.036 94.7897 19.7227 97.8836 20.9561C100.647 22.0574 102.001 24.3489 102.341 27.2415C102.437 28.0573 102.356 28.8939 102.356 29.8123C99.7124 29.8123 97.0928 29.8123 94.4141 29.8123ZM90.0118 26.6602C89.9782 26.8188 89.9446 26.9774 89.904 27.1696C92.9797 27.1696 95.9767 27.1696 99.0034 27.1696C98.7601 25.3954 97.8533 24.1872 96.1905 23.585C93.9607 22.7773 90.9482 23.7147 90.0118 26.6602Z" fill="#E8FFF1"/>
<path d="M133.561 26.6373C134.967 26.5297 136.319 26.4295 137.662 26.3302C137.821 25.0238 137.227 23.96 136.064 23.5731C134.656 23.1052 133.231 23.1713 131.919 23.8544C131.314 24.1695 130.844 24.7448 130.236 25.2679C129.44 24.8544 128.539 24.3859 127.601 23.8979C128.205 22.5263 129.203 21.636 130.485 21.075C132.69 20.111 134.969 19.9934 137.26 20.7054C139.643 21.4463 141.002 23.1179 141.125 25.6154C141.241 27.9614 141.194 30.3158 141.211 32.6666C141.219 33.9087 141.212 35.1511 141.212 36.4431C140.099 36.4431 139.025 36.4431 137.877 36.4431C137.877 35.839 137.877 35.2589 137.877 34.6083C137.723 34.6706 137.637 34.6784 137.598 34.725C135.686 36.9935 133.204 37.3064 130.533 36.6495C127.33 35.8613 125.803 32.2003 127.427 29.4038C128.115 28.2185 129.215 27.5694 130.487 27.2321C131.476 26.9697 132.5 26.8357 133.561 26.6373ZM137.419 28.7745C136.773 28.8444 136.119 28.8762 135.48 28.992C134.187 29.227 132.88 29.4311 131.621 29.7943C130.688 30.0633 130.295 30.8686 130.328 31.8334C130.361 32.788 130.809 33.4927 131.71 33.8477C132.073 33.9903 132.465 34.0806 132.852 34.1323C135.039 34.4244 137.197 33.0884 137.611 31.15C137.755 30.4812 137.759 29.7808 137.793 29.0932C137.799 28.9891 137.616 28.8758 137.419 28.7745Z" fill="#FF4A22"/>
<path d="M36.7408 35.5271C34.7603 33.7435 32.4197 32.8002 29.9033 32.2237C23.7112 30.8051 17.8092 31.5861 12.2631 34.6833C11.1786 35.289 10.2048 36.1535 9.31666 37.0362C8.03585 38.3092 7.33734 39.8769 7.48283 41.8126C7.308 41.5972 7.11299 41.3951 6.96145 41.1645C5.35498 38.7192 5.60892 35.4325 7.56794 33.2536C8.67068 32.0271 10.0169 31.1467 11.5217 30.4976C15.8517 28.6297 20.3812 28.1484 25.0396 28.5483C28.4113 28.8379 31.5921 29.7621 34.5308 31.4461C36.4513 32.5465 38.0615 33.9755 38.9742 36.0601C39.5622 37.4034 39.7289 38.7917 39.4042 40.2286C39.3676 40.3909 39.2982 40.5458 39.208 40.7001C39.2063 38.5886 38.2552 36.9464 36.7408 35.5271Z" fill="#159745"/>
<path d="M81.8749 36.8348C78.9337 36.6409 77.4689 35.146 77.4199 32.2478C77.3761 29.6593 77.4002 27.0697 77.3945 24.4806C77.3939 24.2281 77.3944 23.9757 77.3944 23.6647C76.5088 23.6647 75.6866 23.6647 74.8398 23.6647C74.8398 22.6439 74.8398 21.6821 74.8398 20.6622C75.6885 20.6622 76.5108 20.6622 77.3968 20.6622C77.3968 19.2708 77.3968 17.9359 77.3968 16.5662C78.557 16.5662 79.6515 16.5662 80.8126 16.5662C80.8126 17.9343 80.8126 19.2714 80.8126 20.6639C82.0972 20.6639 83.317 20.6639 84.5766 20.6639C84.5766 21.6779 84.5766 22.6356 84.5766 23.6705C83.5505 23.6705 82.5282 23.6924 81.5075 23.6614C80.9948 23.6457 80.7844 23.7567 80.793 24.3388C80.8285 26.7693 80.8042 29.2007 80.8102 31.6317C80.8143 33.3544 81.6123 34.0203 83.3329 33.7291C83.7358 33.6609 84.1272 33.5248 84.6205 33.3943C84.6205 34.3305 84.6331 35.2304 84.6043 36.129C84.6007 36.2392 84.3883 36.4097 84.2499 36.4371C83.4794 36.5895 82.7019 36.7065 81.8749 36.8348Z" fill="#E8FFF1"/>
<path d="M162.373 23.6476C161.823 23.6479 161.33 23.6479 160.764 23.6479C160.751 23.8909 160.727 24.0983 160.728 24.3056C160.739 26.7756 160.751 29.2456 160.769 31.7155C160.78 33.3606 161.614 34.0404 163.243 33.7262C163.647 33.6482 164.039 33.5165 164.548 33.38C164.548 34.2811 164.564 35.1421 164.533 36.0015C164.527 36.1394 164.336 36.3392 164.188 36.3925C162.748 36.9118 161.287 36.9872 159.841 36.4333C158.177 35.7962 157.448 34.4602 157.397 32.7779C157.318 30.1321 157.34 27.483 157.32 24.8354C157.318 24.618 157.299 24.3992 157.318 24.1836C157.354 23.757 157.148 23.6357 156.754 23.6474C156.108 23.6668 155.46 23.6527 154.789 23.6527C154.789 22.6577 154.789 21.7136 154.789 20.659C155.447 20.659 156.09 20.6358 156.732 20.6667C157.197 20.6892 157.355 20.5264 157.344 20.057C157.316 18.8943 157.334 17.7304 157.334 16.5215C158.492 16.5215 159.57 16.5215 160.722 16.5215C160.722 17.6598 160.758 18.8009 160.708 19.9382C160.682 20.5473 160.868 20.7239 161.47 20.6941C162.472 20.6444 163.477 20.6805 164.527 20.6805C164.527 21.6867 164.527 22.6449 164.527 23.6474C163.811 23.6474 163.122 23.6474 162.373 23.6476Z" fill="#FF4A22"/>
<path d="M148.123 27.9403C148.118 30.8181 148.118 33.6407 148.118 36.5041C146.935 36.5041 145.84 36.5041 144.693 36.5041C144.693 31.2495 144.693 26.0041 144.693 20.7228C145.797 20.7228 146.858 20.7228 148.013 20.7228C148.013 21.5621 148.013 22.4131 148.013 23.2639C148.061 23.2954 148.11 23.327 148.159 23.3585C149.206 21.0197 151.086 20.2986 153.482 20.4607C153.482 21.6178 153.482 22.7181 153.482 23.8897C150.584 23.7405 148.481 24.668 148.123 27.9403Z" fill="#FF4A22"/>
<path d="M68.7833 34.0689C68.7836 29.5873 68.7836 25.165 68.7836 20.707C69.9461 20.707 71.0598 20.707 72.2143 20.707C72.2143 25.9782 72.2143 31.2227 72.2143 36.5056C71.0767 36.5056 69.9628 36.5056 68.7832 36.5056C68.7832 35.6978 68.7832 34.9131 68.7833 34.0689Z" fill="#E8FFF1"/>
<path d="M70.1771 14.2094C71.4942 14.1494 72.4263 14.846 72.622 15.9916C72.8182 17.1392 72.2101 18.2265 71.1987 18.5367C69.9443 18.9217 68.7733 18.2543 68.4262 16.9569C68.0762 15.6482 68.7615 14.546 70.1771 14.2094Z" fill="#F4FFF8"/>
<path d="M11.9767 7.63016C9.79935 6.35462 7.52604 5.50626 4.85742 5.36812C6.01578 4.84311 7.05947 4.93571 8.08047 5.09381C10.8574 5.52377 13.2252 6.81983 15.3172 8.65508C17.279 10.3762 18.7265 12.4335 19.3697 14.9951C19.5243 15.6104 19.6044 16.2444 19.6807 16.885C18.3052 12.8179 15.6074 9.86344 11.9767 7.63016Z" fill="white"/>
</g>
<defs>
<clipPath id="clip0_2703_21067">
<rect width="163.661" height="48.5054" fill="white" transform="translate(0.902344 0.750854)"/>
</clipPath>
</defs>
</svg>
