<svg width="150" height="46" viewBox="0 0 150 46" fill="none" xmlns="http://www.w3.org/2000/svg">
<g clip-path="url(#clip0_2612_18796)">
<path d="M2.4623 4.2553C4.02901 3.3195 5.67324 3.28677 7.32951 3.73032C11.6034 4.87489 14.9925 7.25699 17.2655 11.0968C18.6804 13.4871 18.8589 16.0888 18.3871 18.7707C18.3557 18.9488 18.3397 19.1304 18.2978 19.306C18.001 20.55 18.102 21.6902 19.2515 22.6257C18.525 23.4826 17.8547 24.327 17.121 25.1123C16.8259 25.4282 16.0164 25.2677 15.7161 24.878C15.0928 24.0695 14.277 23.7754 13.2848 23.8453C8.51736 24.181 5.14859 21.9087 2.66179 18.0714C1.11992 15.6923 0.216222 13.0677 0.022677 10.2326C-0.0358437 9.37545 0.021108 8.4908 0.168021 7.64351C0.416718 6.20918 1.17486 5.06252 2.4623 4.2553ZM10.1818 7.09575C13.4743 9.12362 15.947 11.8314 17.2077 15.559C17.1377 14.972 17.0642 14.3909 16.9226 13.827C16.333 11.4791 15.0064 9.59356 13.2084 8.01614C11.2911 6.33407 9.12078 5.1462 6.57569 4.75213C5.63992 4.60724 4.68335 4.52237 3.62168 5.00355C6.06754 5.13016 8.15109 5.9077 10.1818 7.09575Z" fill="#FF4A22"/>
<path d="M35.1428 3.1325C35.3119 2.94055 35.427 2.71796 35.6074 2.63115C35.8043 2.53644 36.1245 2.47325 36.2734 2.57254C36.4009 2.65759 36.462 3.0421 36.3787 3.20595C36.1345 3.68685 35.8198 4.13534 35.5042 4.57612C33.4916 7.38692 31.4708 10.1919 29.4546 13.0001C29.2966 13.2201 29.0798 13.4341 29.0245 13.6811C28.9755 13.9 29.0385 14.2704 29.1891 14.3729C29.3471 14.4804 29.6935 14.4045 29.9096 14.3047C30.0874 14.2225 30.2001 13.9922 30.333 13.8208C32.7482 10.7006 35.1621 7.5795 37.5765 4.45872C37.6207 4.40147 37.6628 4.34169 37.7129 4.28989C37.9363 4.05889 38.2323 3.9089 38.4629 4.1755C38.5942 4.32742 38.6379 4.70428 38.5404 4.87911C38.1093 5.65233 37.6341 6.40361 37.1358 7.13631C35.3345 9.78504 33.5175 12.423 31.7063 15.0651C31.6553 15.1398 31.6021 15.213 31.5517 15.2883C31.2205 15.7824 31.2237 16.0987 31.5813 16.3195C32.0072 16.5824 32.2929 16.3584 32.5401 16.0191C32.8492 15.5949 33.1629 15.1739 33.4754 14.7522C35.5873 11.9016 37.6994 9.05119 39.8118 6.20091C39.8656 6.12822 39.9091 6.01716 39.9804 5.99368C40.212 5.91731 40.4947 5.77421 40.6795 5.84934C40.819 5.90604 40.9229 6.27069 40.8919 6.4755C40.8418 6.80749 40.6897 7.13105 40.5432 7.44047C38.6823 11.3726 36.603 15.1801 33.973 18.659C33.2986 19.551 32.5444 20.3917 31.757 21.1869C30.6823 22.2721 29.316 22.825 27.8101 22.645C25.9683 22.4249 24.7806 23.1896 23.9994 24.7507C23.7103 25.3286 23.3488 25.4433 22.7126 25.3619C21.4955 25.2061 20.26 25.1933 19.032 25.1237C18.8779 25.115 18.7228 25.1225 18.416 25.1225C19.4146 23.9001 20.3093 22.7725 21.24 21.6757C21.9685 20.8171 22.1903 19.87 21.8976 18.7916C21.8124 18.4773 21.7442 18.1578 21.6461 17.8477C21.1568 16.2987 21.2544 14.783 22.0761 13.3887C22.7533 12.2396 23.4894 11.1093 24.3269 10.0737C26.9053 6.88497 29.809 4.00123 32.8508 1.25621C33.1623 0.975085 33.5048 0.537557 33.9663 0.924227C34.4663 1.34312 33.9968 1.72969 33.7637 2.04367C31.7573 4.74723 29.7284 7.43396 27.7094 10.1282C27.3512 10.6062 27.0098 11.0967 26.6582 11.5796C26.4304 11.8925 26.3424 12.2219 26.6809 12.4935C27.0304 12.7738 27.3584 12.6536 27.6222 12.3259C28.6437 11.0566 29.6538 9.77786 30.6864 8.51765C32.155 6.7254 33.6397 4.94636 35.1428 3.1325Z" fill="#149C47"/>
<path d="M24.6671 37.5728C23.0799 35.35 21.5157 33.1587 19.9036 30.9001C19.7101 31.1458 19.5684 31.3036 19.4512 31.4779C16.6852 35.5968 13.9151 39.7128 11.1625 43.8406C10.434 44.9328 9.42179 45.3425 8.17099 45.1574C5.72855 44.7959 4.54503 41.8461 6.11523 39.9329C7.98727 37.652 10.0653 35.531 11.8249 33.1698C13.1023 31.4557 14.8291 30.91 16.7018 30.4803C19.5072 29.8369 22.3374 29.7965 25.1757 30.237C25.3726 30.2675 25.5989 30.3775 25.7298 30.5237C28.545 33.6663 31.3574 36.8115 34.1493 39.9746C35.1283 41.0836 35.1958 42.4683 34.4072 43.6787C33.6144 44.8954 32.1663 45.4704 30.8242 45.1185C30.0203 44.9076 29.4785 44.3805 29.0178 43.7254C27.5804 41.6813 26.1334 39.6443 24.6671 37.5728Z" fill="#FF4A22"/>
<path d="M56.545 22.9275C56.397 23.0252 56.2852 23.1031 56.1356 23.2073C56.2899 23.2826 56.3835 23.3348 56.4818 23.3753C58.539 24.2224 59.5397 25.8013 59.5716 27.9822C59.6039 30.1867 58.6632 31.8577 56.6501 32.8514C55.5759 33.3816 54.4162 33.5973 53.2307 33.6094C50.4603 33.6379 47.6895 33.6311 44.919 33.6363C44.8314 33.6365 44.7438 33.6125 44.6367 33.5969C44.6367 26.9773 44.6367 20.3727 44.6367 13.7271C44.8077 13.7114 44.962 13.6849 45.1165 13.6851C47.6879 13.6881 50.2602 13.6598 52.8303 13.7201C53.6679 13.7397 54.5352 13.8888 55.3284 14.1574C58.2629 15.1513 59.588 18.7141 58.0137 21.3869C57.669 21.9721 57.0654 22.4048 56.545 22.9275ZM54.3363 30.564C55.3562 30.2443 55.9962 29.5621 56.2361 28.5243C56.6837 26.5879 55.5093 24.9748 53.389 24.8362C51.5874 24.7185 49.7715 24.8169 47.9619 24.8229C47.9336 24.823 47.9054 24.8635 47.881 24.8821C47.881 26.831 47.881 28.7763 47.881 30.7659C49.2612 30.7659 50.5975 30.7856 51.9329 30.7583C52.707 30.7424 53.4795 30.6506 54.3363 30.564ZM54.9163 20.7729C56.0668 18.7692 54.9876 16.7809 52.6918 16.7234C51.1922 16.6859 49.6907 16.713 48.1902 16.7152C48.0886 16.7153 47.987 16.749 47.8857 16.7669C47.8857 18.5054 47.8857 20.2134 47.8857 21.97C49.4885 21.97 51.0567 21.9859 52.6245 21.964C53.5405 21.9513 54.3015 21.5731 54.9163 20.7729Z" fill="#149C47"/>
<path d="M109.168 29.8938C109.818 29.2436 110.437 28.6164 111.114 27.9286C111.956 28.3486 112.873 28.8059 113.836 29.2862C113.298 30.3108 112.634 31.159 111.761 31.8216C108.219 34.5087 104.363 34.7458 100.52 32.7739C96.7016 30.8149 94.9746 27.4249 95.1532 23.1488C95.3097 19.4034 96.9602 16.4257 100.283 14.6212C103.629 12.8036 107.101 12.8577 110.489 14.6153C111.915 15.3557 112.969 16.5213 113.733 17.9484C112.836 18.4215 111.974 18.8759 110.994 19.3921C110.965 19.333 110.931 19.2261 110.868 19.14C109.169 16.8089 106.83 16.0341 104.079 16.5145C101.329 16.9949 99.5609 18.6876 98.7338 21.3362C97.6076 24.9435 99.2485 28.9067 102.548 30.3671C104.783 31.356 107.023 31.2782 109.168 29.8938Z" fill="#FF4A22"/>
<path d="M85.7064 27.4072C84.2959 27.4072 82.9398 27.4072 81.5854 27.4072C81.5381 28.6897 82.727 30.2916 84.1233 30.8648C86.1504 31.697 88.0066 31.1502 89.863 29.1654C90.6762 29.6506 91.4924 30.1374 92.4145 30.6873C91.9677 31.1793 91.5921 31.6861 91.127 32.0898C88.8217 34.0899 86.15 34.4166 83.3373 33.5411C80.6523 32.7054 78.9376 30.8218 78.4058 28.057C77.8395 25.1128 78.496 22.4261 80.8702 20.4435C83.2611 18.447 86.0507 18.1598 88.8863 19.2902C91.4186 20.2997 92.66 22.3999 92.9716 25.051C93.0594 25.7987 92.9849 26.5654 92.9849 27.4072C90.5624 27.4072 88.1615 27.4072 85.7064 27.4072ZM81.6716 24.5183C81.6408 24.6636 81.61 24.8089 81.5727 24.9851C84.3918 24.9851 87.1386 24.9851 89.9126 24.9851C89.6896 23.359 88.8585 22.2516 87.3345 21.6997C85.2909 20.9595 82.5298 21.8186 81.6716 24.5183Z" fill="#149C47"/>
<path d="M121.586 24.4973C122.874 24.3987 124.113 24.3069 125.345 24.2158C125.491 23.0185 124.946 22.0435 123.88 21.6888C122.589 21.26 121.284 21.3206 120.081 21.9466C119.526 22.2354 119.096 22.7627 118.538 23.2422C117.809 22.8632 116.983 22.4338 116.123 21.9865C116.678 20.7295 117.592 19.9135 118.767 19.3992C120.787 18.5158 122.876 18.4079 124.976 19.0606C127.16 19.7396 128.406 21.2716 128.519 23.5607C128.625 25.7109 128.582 27.8687 128.597 30.0233C128.605 31.1617 128.598 32.3004 128.598 33.4846C127.579 33.4846 126.594 33.4846 125.542 33.4846C125.542 32.9309 125.542 32.3992 125.542 31.8029C125.4 31.86 125.322 31.8672 125.286 31.9099C123.534 33.989 121.259 34.2758 118.811 33.6737C115.875 32.9513 114.475 29.5959 115.964 27.0328C116.595 25.9465 117.603 25.3515 118.769 25.0424C119.675 24.802 120.613 24.6791 121.586 24.4973ZM125.122 26.4561C124.53 26.5201 123.931 26.5492 123.345 26.6554C122.16 26.8708 120.962 27.0578 119.808 27.3908C118.953 27.6373 118.593 28.3753 118.623 29.2597C118.654 30.1346 119.063 30.7804 119.889 31.1058C120.222 31.2365 120.582 31.3192 120.936 31.3666C122.941 31.6344 124.919 30.4099 125.298 28.6333C125.43 28.0203 125.434 27.3784 125.464 26.7482C125.47 26.6527 125.303 26.5489 125.122 26.4561Z" fill="#FF4A22"/>
<path d="M32.8468 32.645C31.0316 31.0103 28.8864 30.1458 26.5801 29.6174C20.9049 28.3172 15.4955 29.033 10.4124 31.8716C9.41831 32.4269 8.52583 33.2191 7.71183 34.0282C6.53794 35.1949 5.89773 36.6317 6.03108 38.4059C5.87084 38.2085 5.69211 38.0233 5.55322 37.8119C4.08084 35.5707 4.31359 32.5584 6.10908 30.5613C7.11978 29.4372 8.35364 28.6303 9.73284 28.0353C13.7014 26.3234 17.8528 25.8823 22.1224 26.2488C25.2126 26.5142 28.1279 27.3613 30.8213 28.9047C32.5815 29.9133 34.0572 31.2229 34.8938 33.1336C35.4327 34.3647 35.5855 35.6372 35.2879 36.9541C35.2543 37.1028 35.1907 37.2448 35.108 37.3862C35.1065 35.451 34.2347 33.9459 32.8468 32.645Z" fill="#159745"/>
<path d="M74.2115 33.8435C71.5158 33.6658 70.1732 32.2957 70.1283 29.6393C70.0882 27.267 70.1103 24.8935 70.1051 22.5205C70.1045 22.2891 70.105 22.0578 70.105 21.7727C69.2933 21.7727 68.5398 21.7727 67.7637 21.7727C67.7637 20.8372 67.7637 19.9557 67.7637 19.0209C68.5415 19.0209 69.2952 19.0209 70.1071 19.0209C70.1071 17.7457 70.1071 16.5222 70.1071 15.2667C71.1705 15.2667 72.1737 15.2667 73.2379 15.2667C73.2379 16.5207 73.2379 17.7462 73.2379 19.0224C74.4152 19.0224 75.5332 19.0224 76.6877 19.0224C76.6877 19.9517 76.6877 20.8296 76.6877 21.778C75.7473 21.778 74.8103 21.7982 73.8748 21.7697C73.4049 21.7553 73.212 21.8571 73.2199 22.3905C73.2525 24.6182 73.2302 26.8466 73.2356 29.0747C73.2394 30.6536 73.9708 31.2639 75.5478 30.9971C75.917 30.9346 76.2757 30.8098 76.7279 30.6902C76.7279 31.5483 76.7394 32.373 76.713 33.1966C76.7098 33.2976 76.5151 33.4539 76.3882 33.479C75.682 33.6187 74.9694 33.7259 74.2115 33.8435Z" fill="#149C47"/>
<path d="M147.99 21.7572C147.486 21.7574 147.034 21.7574 146.515 21.7574C146.503 21.9801 146.481 22.1702 146.483 22.3602C146.492 24.624 146.503 26.8878 146.52 29.1516C146.53 30.6593 147.295 31.2824 148.787 30.9944C149.158 30.9229 149.517 30.8023 149.984 30.6772C149.984 31.503 149.998 32.2922 149.97 33.0798C149.964 33.2062 149.789 33.3893 149.653 33.4381C148.334 33.9141 146.995 33.9833 145.67 33.4755C144.145 32.8916 143.476 31.6672 143.429 30.1253C143.356 27.7003 143.377 25.2724 143.359 22.8458C143.356 22.6465 143.339 22.446 143.356 22.2484C143.39 21.8574 143.201 21.7462 142.84 21.7569C142.248 21.7748 141.654 21.7618 141.039 21.7618C141.039 20.8499 141.039 19.9846 141.039 19.018C141.642 19.018 142.231 18.9967 142.819 19.0251C143.246 19.0456 143.391 18.8965 143.38 18.4663C143.355 17.4006 143.372 16.3339 143.372 15.2259C144.433 15.2259 145.421 15.2259 146.477 15.2259C146.477 16.2691 146.51 17.315 146.464 18.3574C146.44 18.9156 146.611 19.0775 147.162 19.0502C148.08 19.0047 149.002 19.0377 149.964 19.0377C149.964 19.9599 149.964 20.8381 149.964 21.7569C149.308 21.7569 148.676 21.7569 147.99 21.7572Z" fill="#FF4A22"/>
<path d="M134.927 25.6914C134.922 28.329 134.922 30.916 134.922 33.5403C133.838 33.5403 132.834 33.5403 131.783 33.5403C131.783 28.7244 131.783 23.9169 131.783 19.0764C132.795 19.0764 133.767 19.0764 134.826 19.0764C134.826 19.8457 134.826 20.6256 134.826 21.4053C134.87 21.4342 134.915 21.4632 134.959 21.4921C135.919 19.3485 137.642 18.6876 139.839 18.8362C139.839 19.8966 139.839 20.9051 139.839 21.9789C137.182 21.8422 135.255 22.6923 134.927 25.6914Z" fill="#FF4A22"/>
<path d="M62.2149 31.3085C62.2152 27.201 62.2152 23.1478 62.2152 19.062C63.2807 19.062 64.3014 19.062 65.3595 19.062C65.3595 23.8932 65.3595 28.6999 65.3595 33.5417C64.3169 33.5417 63.2959 33.5417 62.2148 33.5417C62.2148 32.8014 62.2148 32.0822 62.2149 31.3085Z" fill="#149C47"/>
<path d="M63.4908 13.1067C64.6984 13.0517 65.5529 13.6904 65.7324 14.7408C65.9123 15.7929 65.3548 16.7898 64.4275 17.0742C63.2774 17.4272 62.2037 16.8153 61.8855 15.6258C61.5646 14.4259 62.1929 13.4153 63.4908 13.1067Z" fill="#149C47"/>
<path d="M10.1461 7.07676C8.15051 5.90769 6.06695 5.13015 3.62109 5.00354C4.68276 4.52235 5.63933 4.60722 6.5751 4.75212C9.12019 5.14619 11.2904 6.33407 13.2078 8.01612C15.0058 9.59356 16.3325 11.4791 16.922 13.827C17.0637 14.3909 17.1371 14.972 17.207 15.559C15.9464 11.8314 13.4738 9.12361 10.1461 7.07676Z" fill="white"/>
</g>
<defs>
<clipPath id="clip0_2612_18796">
<rect width="150" height="44.4565" fill="white" transform="translate(0 0.771744)"/>
</clipPath>
</defs>
</svg>
